<svg width="22" height="19" viewBox="0 0 22 19" fill="none" xmlns="http://www.w3.org/2000/svg">
<path d="M19.8401 1.60999C19.3294 1.099 18.7229 0.693641 18.0555 0.417078C17.388 0.140516 16.6726 -0.00183105 15.9501 -0.00183105C15.2276 -0.00183105 14.5122 0.140516 13.8448 0.417078C13.1773 0.693641 12.5709 1.099 12.0601 1.60999L11.0001 2.66999L9.94012 1.60999C8.90843 0.578303 7.50915 -0.00129629 6.05012 -0.00129628C4.59109 -0.00129627 3.19181 0.578303 2.16012 1.60999C1.12843 2.64169 0.548828 4.04096 0.548828 5.49999C0.548828 6.95903 1.12843 8.3583 2.16012 9.38999L11.0001 18.23L19.8401 9.38999C20.3511 8.87924 20.7565 8.27281 21.033 7.60535C21.3096 6.93789 21.4519 6.22248 21.4519 5.49999C21.4519 4.77751 21.3096 4.0621 21.033 3.39464C20.7565 2.72718 20.3511 2.12075 19.8401 1.60999Z" fill="#65558F"/>
</svg>
